<svg xmlns="http://www.w3.org/2000/svg" xmlns:xlink="http://www.w3.org/1999/xlink" width="583" zoomAndPan="magnify" viewBox="0 0 437.25 66.75" height="89" preserveAspectRatio="xMidYMid meet" version="1.0"><defs><clipPath id="8d8782ce97"><path d="M 0.679688 0.351562 L 407.617188 0.351562 L 407.617188 66.351562 L 0.679688 66.351562 Z M 0.679688 0.351562 " clip-rule="nonzero"/></clipPath><clipPath id="34c2d71fb7"><path d="M 22.679688 0.351562 L 407.617188 0.351562 L 385.621094 66.351562 L 0.679688 66.351562 Z M 22.679688 0.351562 " clip-rule="nonzero"/></clipPath><clipPath id="36c04c8a89"><path d="M 390.699219 0.351562 L 435.703125 0.351562 L 435.703125 66.351562 L 390.699219 66.351562 Z M 390.699219 0.351562 " clip-rule="nonzero"/></clipPath><clipPath id="559e272cae"><path d="M 412.699219 0.351562 L 435.703125 0.351562 L 413.703125 66.351562 L 390.699219 66.351562 Z M 412.699219 0.351562 " clip-rule="nonzero"/></clipPath></defs><g clip-path="url(#8d8782ce97)"><g clip-path="url(#34c2d71fb7)"><path fill="#c80102" d="M 0.679688 0.351562 L 407.617188 0.351562 L 407.617188 66.351562 L 0.679688 66.351562 Z M 0.679688 0.351562 " fill-opacity="1" fill-rule="nonzero"/></g></g><g clip-path="url(#36c04c8a89)"><g clip-path="url(#559e272cae)"><path fill="#c80102" d="M 390.699219 0.351562 L 435.703125 0.351562 L 435.703125 66.351562 L 390.699219 66.351562 Z M 390.699219 0.351562 " fill-opacity="1" fill-rule="nonzero"/></g></g></svg>